# xmcd CD database file
#
# Track frame offsets:
#	182
#	36257
#	61682
#	86927
#	105175
#	124980
#	137080
#	149160
#	164177
#	186792
#	199560
#	214872
#	236307
#	255272
#
# Disc length: 3770 seconds
#
# Revision: 0
# Processed by: cddbd v1.5.2PL0 Copyright (c) Steve Scherf et al.
# Submitted via: CDex 1.70beta2
#
DISCID=cb0eb80e
DTITLE=Warner Jazz Collection - Voix féminines
DYEAR=2000
DGENRE=Jazz
TTITLE0=Ella Fitzgerald - Mack The Knife
TTITLE1=Dee Dee Bridgewater - My Prayer (Ballad)
TTITLE2=Sarah Vaughan - I've Got The World on a String
TTITLE3=Abbey Lincoln - It's Magic
TTITLE4=Manhattan Transfer - Je Voulais Te Dire (Que Je t'Attends)
TTITLE5=Helen Merrill - Anytime
TTITLE6=Annie Ross - Twisted
TTITLE7=Betty Carter - 'Round Midnight
TTITLE8=Ella Fitzgerald - Cottontail
TTITLE9=Carmen McRae - The Meaning of The Blues
TTITLE10=Helen Humes - My Old Flame
TTITLE11=Anita O'Day - Here's That Rainy Day
TTITLE12=Chris Connor - Laura
TTITLE13=Ella Fitzgerald - Fine and Mellow
EXTD=YEAR: 2000
EXTT0=
EXTT1=
EXTT2=
EXTT3=
EXTT4=
EXTT5=
EXTT6=
EXTT7=
EXTT8=
EXTT9=
EXTT10=
EXTT11=
EXTT12=
EXTT13=
PLAYORDER=
